<?xml version="1.0" encoding="UTF-8" standalone="no"?>
<!-- Created with Inkscape (http://www.inkscape.org/) -->

<svg
   width="210mm"
   height="297mm"
   viewBox="0 0 210 297"
   version="1.1"
   id="svg1"
   xml:space="preserve"
   inkscape:export-filename="bmp.png"
   inkscape:export-xdpi="96"
   inkscape:export-ydpi="96"
   inkscape:version="1.3.2 (091e20e, 2023-11-25, custom)"
   sodipodi:docname="drawing.svg"
   xmlns:inkscape="http://www.inkscape.org/namespaces/inkscape"
   xmlns:sodipodi="http://sodipodi.sourceforge.net/DTD/sodipodi-0.dtd"
   xmlns="http://www.w3.org/2000/svg"
   xmlns:svg="http://www.w3.org/2000/svg"><sodipodi:namedview
     id="namedview1"
     pagecolor="#ffffff"
     bordercolor="#000000"
     borderopacity="0.25"
     inkscape:showpageshadow="2"
     inkscape:pageopacity="0.0"
     inkscape:pagecheckerboard="0"
     inkscape:deskcolor="#d1d1d1"
     inkscape:document-units="mm"
     inkscape:zoom="2.9531033"
     inkscape:cx="418.37344"
     inkscape:cy="665.40171"
     inkscape:window-width="2560"
     inkscape:window-height="1412"
     inkscape:window-x="-8"
     inkscape:window-y="-8"
     inkscape:window-maximized="1"
     inkscape:current-layer="layer1" /><defs
     id="defs1" /><g
     inkscape:label="Layer 1"
     inkscape:groupmode="layer"
     id="layer1"><path
       d="m 101.98783,168.2354 18.80663,9.79271 v 4.0196 l -18.80487,-9.7927 v -4.01811 z m 37.92697,0 v 4.01804 l -18.8083,9.79275 v -4.01808 l 18.80663,-9.79428 z m -37.92697,-6.59938 18.80663,9.7927 v 4.01961 l -12.38284,-6.44789 -1.83097,0.95174 -3.86244,-2.00905 1.83434,-0.95324 -2.56472,-1.33584 z m 37.92697,0 v 4.01803 l -2.56471,1.33584 1.83441,0.95478 -3.86249,2.00901 -1.83436,-0.95324 -12.38459,6.44789 v -4.01961 l 18.81007,-9.7927 z m -37.92697,-6.59939 18.80663,9.79271 v 4.01958 l -6.04311,-3.14739 -1.82924,0.95172 -3.86081,-2.0106 1.82924,-0.95172 -2.44983,-1.27454 -1.82747,0.95173 -3.86252,-2.01063 1.831,-0.95172 -2.59557,-1.35105 z m 37.92697,0 v 4.01809 l -2.59554,1.35105 1.83439,0.95172 -3.86423,2.01212 -1.83091,-0.95322 -2.44816,1.27454 1.83098,0.95172 -3.86076,2.0106 -1.83438,-0.95172 -6.04313,3.14739 v -4.01958 l 18.81007,-9.79271 z m -18.96431,3.42283 5.54767,2.88428 -3.86073,2.0106 -1.68526,-0.87677 -1.6835,0.87677 -3.86075,-2.0106 5.54598,-2.88428 z m 0,-6.56873 11.85657,6.16636 -3.86075,2.01204 -7.99582,-4.15879 -7.9924,4.1573 -3.86243,-2.01055 z m 0,-6.56573 18.16715,9.44842 -3.86075,2.01058 -14.3064,-7.43939 -14.30299,7.43939 -3.86075,-2.01058 z"
       id="path1"
       style="stroke-width:1.61962"
       inkscape:export-filename="path1.png"
       inkscape:export-xdpi="96"
       inkscape:export-ydpi="96" /></g></svg>
